<?xml version="1.0" standalone="no"?>
<!DOCTYPE svg PUBLIC "-//W3C//DTD SVG 20010904//EN"
 "http://www.w3.org/TR/2001/REC-SVG-20010904/DTD/svg10.dtd">
<svg version="1.0" xmlns="http://www.w3.org/2000/svg"
 width="700.000000pt" height="700.000000pt" viewBox="0 0 700.000000 700.000000"
 preserveAspectRatio="xMidYMid meet">
<metadata>
Created by potrace 1.11, written by Peter Selinger 2001-2013
</metadata>
<g transform="translate(0.000000,700.000000) scale(0.100000,-0.100000)"
fill="#000000" stroke="none">
<path d="M2715 6107 c-17 -21 -124 -137 -273 -295 -24 -26 -66 -71 -94 -102
-28 -30 -101 -109 -162 -174 -61 -65 -124 -134 -141 -151 -59 -63 -250 -269
-280 -301 -52 -55 -240 -257 -250 -269 -5 -6 -42 -44 -80 -85 -70 -75 -273
-292 -395 -424 -36 -38 -96 -104 -135 -145 -38 -41 -77 -82 -85 -91 -8 -9 -42
-45 -75 -81 -101 -108 -291 -312 -325 -349 -18 -19 -52 -57 -77 -83 l-46 -48
45 -47 c24 -26 83 -87 131 -137 47 -49 94 -99 104 -111 15 -17 193 -206 343
-364 100 -106 330 -348 351 -372 14 -14 84 -88 156 -165 72 -76 148 -156 169
-178 20 -22 105 -112 188 -200 306 -323 458 -484 502 -531 44 -48 308 -326
406 -428 l87 -91 1772 -1 c1366 -1 1782 1 1818 11 162 43 295 167 327 305 13
58 14 63 15 130 1 77 -13 146 -42 203 -29 57 -115 137 -179 169 -118 57 -106
56 -955 54 -429 -1 -790 0 -802 2 -21 4 -17 11 45 80 101 115 119 135 142 162
26 31 119 136 180 205 25 28 70 80 100 115 30 34 59 68 65 74 5 6 37 43 70 81
33 39 74 86 91 105 17 19 84 96 149 170 208 239 230 263 245 280 8 8 40 45 70
80 30 36 60 70 65 76 6 6 37 41 70 79 33 38 67 76 75 85 86 92 130 151 123
164 -4 7 -33 42 -63 77 -64 74 -133 152 -140 159 -3 3 -54 61 -114 130 -60 69
-137 157 -171 195 -34 39 -77 88 -96 110 -19 21 -41 47 -49 55 -8 9 -40 45
-71 81 -167 190 -446 509 -473 539 -17 19 -60 69 -96 110 -36 41 -67 77 -70
80 -6 6 -137 157 -159 183 -15 18 15 18 819 16 l835 -2 65 23 c86 30 107 41
167 88 116 92 168 247 141 417 -25 162 -140 284 -313 332 -42 11 -359 15
-1875 19 l-1826 5 -19 -24z m741 -752 c225 -258 282 -324 310 -355 17 -19 80
-91 140 -160 60 -69 113 -130 119 -136 5 -6 35 -39 65 -74 30 -35 60 -68 65
-74 6 -6 39 -45 75 -86 36 -41 67 -77 70 -80 3 -3 34 -39 70 -80 35 -41 67
-77 70 -80 3 -3 50 -57 105 -120 54 -63 101 -117 104 -120 3 -3 35 -39 71 -80
101 -117 110 -127 234 -267 64 -73 116 -135 116 -138 0 -3 -13 -20 -29 -38
-16 -17 -81 -93 -146 -167 -65 -74 -132 -151 -149 -170 -17 -19 -58 -66 -91
-105 -33 -38 -63 -72 -66 -75 -7 -6 -42 -47 -222 -254 -10 -12 -33 -37 -50
-56 -18 -19 -75 -84 -127 -145 -52 -60 -97 -112 -100 -115 -3 -3 -35 -39 -70
-80 -36 -41 -68 -77 -71 -80 -3 -3 -39 -43 -80 -90 -117 -134 -120 -137 -250
-286 -68 -77 -149 -169 -179 -204 -30 -35 -66 -76 -81 -92 l-25 -28 -66 72
c-37 40 -89 98 -118 128 -28 30 -90 97 -138 149 -48 52 -91 99 -97 105 -24 26
-271 292 -280 302 -5 6 -53 57 -105 114 -146 158 -145 157 -264 284 -61 65
-119 128 -129 140 -18 21 -154 168 -292 316 -38 41 -117 126 -175 189 -58 62
-120 129 -137 147 -18 19 -33 39 -33 44 0 5 12 22 27 38 38 40 214 230 235
255 10 10 66 71 125 135 59 64 131 141 159 172 28 30 76 82 106 115 31 33 69
74 84 91 16 17 70 76 121 130 50 55 100 108 110 120 10 12 63 70 118 129 55
59 111 120 125 135 95 103 202 220 227 246 15 16 53 57 83 90 30 33 100 109
155 168 55 59 111 121 125 137 l25 29 35 -38 c19 -20 62 -69 96 -107z"/>
</g>
</svg>
