<?xml version="1.0" standalone="no"?>
<!DOCTYPE svg PUBLIC "-//W3C//DTD SVG 20010904//EN"
 "http://www.w3.org/TR/2001/REC-SVG-20010904/DTD/svg10.dtd">
<svg version="1.0" xmlns="http://www.w3.org/2000/svg"
 width="700.000000pt" height="700.000000pt" viewBox="0 0 700.000000 700.000000"
 preserveAspectRatio="xMidYMid meet">
<metadata>
Created by potrace 1.11, written by Peter Selinger 2001-2013
</metadata>
<g transform="translate(0.000000,700.000000) scale(0.100000,-0.100000)"
fill="#000000" stroke="none">
<path d="M2717 6103 c-111 -115 -137 -145 -131 -155 4 -6 3 -8 -2 -5 -15 8
-87 -69 -78 -84 4 -7 3 -10 -3 -6 -6 4 -60 -45 -120 -109 -169 -183 -173 -186
-219 -237 -24 -27 -42 -53 -39 -58 4 -5 -1 -6 -9 -3 -9 3 -16 2 -16 -2 0 -5
-23 -34 -51 -64 -29 -30 -99 -107 -158 -169 -58 -63 -114 -123 -124 -133 -9
-10 -15 -18 -14 -18 2 0 -24 -28 -57 -63 -34 -35 -101 -107 -151 -162 -49 -54
-106 -115 -125 -135 -19 -20 -64 -70 -100 -109 -36 -40 -90 -98 -120 -131 -30
-32 -84 -90 -120 -130 -36 -39 -80 -85 -98 -102 -17 -17 -32 -38 -32 -46 0 -9
-3 -12 -6 -9 -4 4 -23 -12 -43 -35 -20 -23 -53 -59 -74 -80 -22 -22 -35 -43
-31 -50 4 -6 3 -8 -3 -5 -11 7 -123 -108 -123 -125 0 -5 -4 -6 -10 -3 -5 3
-10 3 -10 -2 0 -4 -21 -31 -46 -58 -26 -28 -74 -79 -107 -115 -33 -36 -84 -91
-114 -122 -30 -32 -50 -58 -46 -59 4 0 0 -4 -10 -8 -16 -6 -9 -17 49 -79 36
-39 71 -69 77 -65 5 3 7 1 4 -4 -4 -6 35 -54 86 -107 150 -156 292 -307 298
-318 4 -6 12 -7 19 -3 9 6 11 4 5 -4 -4 -8 5 -25 26 -45 19 -18 51 -51 71 -73
20 -23 39 -39 42 -35 3 3 6 0 6 -7 0 -6 36 -49 79 -94 83 -87 108 -113 316
-333 72 -76 159 -169 195 -206 36 -37 87 -92 115 -122 27 -30 53 -52 58 -49 4
2 6 0 5 -4 -3 -10 11 -26 142 -164 98 -103 237 -250 490 -519 63 -67 146 -154
183 -193 162 -171 187 -198 187 -205 0 -9 3524 -7 3568 2 91 18 197 79 257
148 56 64 85 126 99 216 37 238 -64 406 -287 478 l-72 23 -814 1 c-448 0 -816
1 -817 3 -1 1 75 90 168 197 94 107 193 222 222 254 53 63 194 223 211 242 6
6 35 39 65 74 73 85 203 234 210 240 3 3 30 34 60 70 30 36 57 67 60 70 3 3
53 59 110 125 58 66 117 133 131 150 76 86 256 293 267 308 17 20 14 24 -84
133 -39 43 -84 95 -100 114 -16 19 -33 40 -39 46 -23 24 -309 351 -375 428
-14 16 -32 36 -40 45 -9 9 -61 68 -115 131 -55 63 -114 131 -131 150 -58 65
-257 292 -354 405 -19 22 -37 42 -40 45 -3 3 -57 64 -120 135 l-114 130 850 5
849 5 60 24 c180 72 279 199 289 369 13 227 -92 388 -297 454 -61 21 -82 21
-1879 24 -1373 2 -1818 -1 -1818 -9 0 -8 -3 -8 -8 1 -6 9 -15 5 -35 -15z m808
-833 c103 -118 214 -244 245 -280 54 -62 272 -310 329 -375 14 -17 87 -100
160 -185 74 -85 142 -162 150 -171 9 -9 39 -42 66 -74 28 -32 55 -63 60 -69 6
-6 39 -45 75 -86 36 -41 73 -84 83 -95 62 -67 372 -427 374 -433 2 -6 -106
-135 -221 -262 -17 -19 -76 -87 -131 -150 -55 -63 -102 -117 -105 -120 -3 -3
-66 -75 -140 -160 -74 -85 -139 -160 -145 -166 -5 -6 -35 -40 -66 -75 -31 -35
-95 -109 -144 -164 -95 -108 -100 -115 -380 -435 -103 -118 -213 -244 -245
-280 -31 -36 -77 -88 -101 -115 l-44 -51 -24 26 c-83 92 -157 164 -164 162 -5
-1 -6 2 -3 6 5 9 -29 47 -43 47 -3 0 -5 3 -4 7 1 3 -31 41 -72 84 -41 43 -75
82 -75 87 0 5 -7 6 -16 3 -8 -3 -12 -2 -9 4 8 12 -66 91 -78 83 -6 -3 -7 -1
-3 6 4 6 0 14 -8 17 -9 3 -16 10 -16 14 0 13 -140 155 -151 152 -6 -1 -8 2 -5
7 5 8 -38 59 -168 195 -21 23 -43 40 -50 38 -6 -2 -8 0 -4 4 4 4 -13 30 -39
58 -67 72 -228 246 -293 315 -30 33 -100 108 -155 167 -55 59 -127 136 -161
171 -33 34 -59 63 -58 63 2 0 -7 10 -19 23 -12 13 -53 56 -90 95 -37 40 -73
72 -79 72 -6 0 -8 3 -5 7 9 9 -23 44 -34 37 -5 -3 -9 3 -9 13 0 10 21 41 46
68 59 65 187 204 241 263 23 25 40 49 37 54 -3 5 -1 7 4 6 6 -2 27 16 48 39
107 114 169 187 166 196 -1 4 1 6 6 3 10 -6 72 66 72 83 0 6 4 10 9 9 5 -2 17
7 28 19 26 29 161 179 198 219 81 87 104 118 98 128 -3 6 -2 8 2 3 12 -10 56
33 48 47 -3 6 -3 8 1 4 4 -3 24 12 44 35 20 23 48 54 62 68 14 14 52 57 85 94
33 38 70 80 82 93 13 14 20 29 16 35 -3 5 -2 7 4 4 5 -3 28 15 51 41 22 26 54
63 72 82 18 19 55 61 83 94 64 73 99 111 140 156 18 19 61 68 96 108 52 58 67
70 77 60 6 -7 96 -110 199 -228z m-1920 -1150 c3 -5 1 -10 -4 -10 -6 0 -11 5
-11 10 0 6 2 10 4 10 3 0 8 -4 11 -10z"/>
</g>
</svg>
